<svg width="31" height="46" viewBox="0 0 31 46" fill="none" xmlns="http://www.w3.org/2000/svg">
<path d="M14.257 9.17952C14.8121 8.78543 15.159 8.74413 15.7247 9.17683C18.1152 11.0048 20.552 12.7697 22.9724 14.5577L29.3991 19.3073C29.6358 16.7705 29.4636 14.4274 29.5947 12.0899C29.6193 11.6556 29.3845 11.4216 29.0762 11.194C24.5937 7.88735 20.1159 4.57437 15.643 1.25512C15.2388 0.954416 14.9772 0.99112 14.5875 1.26453C10.104 4.42716 5.61278 7.5799 1.11381 10.7227C0.713597 11.0029 0.516899 11.3088 0.524638 11.8322C0.54194 13.1043 0.469611 14.3779 0.468808 15.6516C0.467233 16.6597 0.516889 17.6675 0.54795 18.8168C0.945055 18.5399 1.2689 18.3172 1.58948 18.0923C5.81779 15.1256 10.0507 12.1717 14.257 9.17952Z" fill="white"/>
<path d="M16.2113 36.7388C15.2681 37.3878 15.2681 37.3857 14.38 36.7172C10.2165 33.603 6.05228 30.49 1.88742 27.378C1.6499 27.2005 1.45908 26.8547 1.01235 27.0333C0.983121 29.2303 0.984233 31.4438 0.905196 33.6541C0.881745 34.3269 1.14142 34.6924 1.6371 35.0609C5.9055 38.2382 10.1697 41.42 14.4032 44.6459C15.0201 45.1162 15.3976 45.0242 15.9697 44.6231C19.8239 41.9174 23.7037 39.2478 27.5746 36.5665C28.1751 36.1505 28.7699 35.7249 29.3793 35.3228C29.6939 35.1122 29.9261 34.8975 29.9313 34.4562C29.9535 32.1206 30.0047 29.7853 30.0496 27.1835C29.4846 27.5681 29.1564 27.7878 28.8305 28.0127L16.2113 36.7388Z" fill="white"/>
<path d="M0.87359 22.8443L15.0589 33.4762L29.6806 23.4011L15.403 12.9485L0.87359 22.8443Z" stroke="white" stroke-width="0.426837" stroke-miterlimit="10"/>
</svg>
