<svg width="34" height="34" viewBox="0 0 34 34" fill="none" xmlns="http://www.w3.org/2000/svg">
<path d="M0.833008 32.5026L22.9997 10.3359M22.9997 10.3359H26.1663C27.846 10.3359 29.457 9.66868 30.6447 8.48095C31.8324 7.29322 32.4997 5.68231 32.4997 4.0026V0.835938H29.333C27.6533 0.835938 26.0424 1.5032 24.8547 2.69093C23.6669 3.87866 22.9997 5.48957 22.9997 7.16927V10.3359ZM3.16051 17.5084L5.58301 15.0859L8.00551 17.5084C9.04006 18.5471 9.62092 19.9533 9.62092 21.4193C9.62092 22.8852 9.04006 24.2915 8.00551 25.3301L5.58301 27.7526L3.16051 25.3301C2.12596 24.2915 1.54509 22.8852 1.54509 21.4193C1.54509 19.9533 2.12596 18.5471 3.16051 17.5084ZM9.49384 11.1751L11.9163 8.7526L14.3388 11.1751C15.3734 12.2137 15.9543 13.62 15.9543 15.0859C15.9543 16.5519 15.3734 17.9581 14.3388 18.9968L11.9163 21.4193L9.49384 18.9968C8.45929 17.9581 7.87843 16.5519 7.87843 15.0859C7.87843 13.62 8.45929 12.2137 9.49384 11.1751ZM15.8272 4.84177L18.2497 2.41927L20.6722 4.84177C21.7067 5.8804 22.2876 7.28664 22.2876 8.7526C22.2876 10.2186 21.7067 11.6248 20.6722 12.6634L18.2497 15.0859L15.8272 12.6634C14.7926 11.6248 14.2118 10.2186 14.2118 8.7526C14.2118 7.28664 14.7926 5.8804 15.8272 4.84177Z" stroke="#0A0A0A" stroke-width="1.66667" stroke-linecap="round" stroke-linejoin="round"/>
<path d="M15.8272 25.329L18.2497 27.7515L15.8272 30.174C14.7885 31.2085 13.3823 31.7894 11.9163 31.7894C10.4504 31.7894 9.04414 31.2085 8.00551 30.174L5.58301 27.7515L8.00551 25.329C9.04414 24.2944 10.4504 23.7135 11.9163 23.7135C13.3823 23.7135 14.7885 24.2944 15.8272 25.329ZM22.1605 18.9956L24.583 21.4181L22.1605 23.8406C21.1219 24.8752 19.7156 25.456 18.2497 25.456C16.7837 25.456 15.3775 24.8752 14.3388 23.8406L11.9163 21.4181L14.3388 18.9956C15.3775 17.9611 16.7837 17.3802 18.2497 17.3802C19.7156 17.3802 21.1219 17.9611 22.1605 18.9956ZM28.4938 12.6623L30.9163 15.0848L28.4938 17.5073C27.4552 18.5418 26.049 19.1227 24.583 19.1227C23.117 19.1227 21.7108 18.5418 20.6722 17.5073L18.2497 15.0848L20.6722 12.6623C21.7108 11.6277 23.117 11.0469 24.583 11.0469C26.049 11.0469 27.4552 11.6277 28.4938 12.6623Z" stroke="#0A0A0A" stroke-width="1.66667" stroke-linecap="round" stroke-linejoin="round"/>
</svg>
