<svg width="72" height="72" viewBox="0 0 72 72" fill="none" xmlns="http://www.w3.org/2000/svg">
<path d="M33 24H39C47.4852 24 51.7278 24 54.3639 26.636C57 29.2721 57 33.5148 57 42C57 50.4852 57 54.7278 54.3639 57.3639C51.7278 60 47.4852 60 39 60H36C36 60 34.5 66 24 66C24 66 27 62.9739 27 59.9481C22.3397 59.8077 19.5599 59.2878 17.636 57.3639C15 54.7278 15 50.4852 15 42C15 33.5148 15 29.2721 17.636 26.636C20.2721 24 24.5147 24 33 24Z" stroke="#000" stroke-width="2.5" stroke-linejoin="round"/>
<path d="M57 34.5H58.5C61.3038 34.5 62.7057 34.5 63.75 35.103C64.434 35.4978 65.0022 36.066 65.397 36.75C66 37.7943 66 39.1962 66 42C66 44.8038 66 46.2057 65.397 47.25C65.0022 47.934 64.434 48.5022 63.75 48.897C62.7057 49.5 61.3038 49.5 58.5 49.5H57" stroke="#000" stroke-width="2.5" stroke-linejoin="round"/>
<path d="M15 34.5H13.5C10.6961 34.5 9.29424 34.5 8.25 35.103C7.56591 35.4978 6.99783 36.066 6.60288 36.75C6 37.7943 6 39.1962 6 42C6 44.8038 6 46.2057 6.60288 47.25C6.99783 47.934 7.56591 48.5022 8.25 48.897C9.29424 49.5 10.6961 49.5 13.5 49.5H15" stroke="#000" stroke-width="2.5" stroke-linejoin="round"/>
<path d="M40.5 10.5C40.5 12.9853 38.4852 15 36 15C33.5148 15 31.5 12.9853 31.5 10.5C31.5 8.01471 33.5148 6 36 6C38.4852 6 40.5 8.01471 40.5 10.5Z" stroke="#000" stroke-width="2.5"/>
<path d="M36 15V24" stroke="#000" stroke-width="2.5" stroke-linecap="round" stroke-linejoin="round"/>
<path d="M27 36V39M45 36V39" stroke="#000" stroke-width="2.5" stroke-linecap="round" stroke-linejoin="round"/>
<path d="M30 49.5C30 49.5 32.0001 51 36 51C39.9999 51 42 49.5 42 49.5" stroke="#000" stroke-width="2.5" stroke-linecap="round"/>
</svg>
