<svg width="129" height="72" viewBox="0 0 129 72" fill="none" xmlns="http://www.w3.org/2000/svg">
<path d="M33.8326 52.3307H29.166C22.5663 52.3307 19.2665 52.3307 17.2163 50.2804C15.166 48.2301 15.166 44.9303 15.166 38.3307V26.6641C15.166 20.0644 15.166 16.7646 17.2163 14.7143C19.2665 12.6641 22.5663 12.6641 29.166 12.6641H32.3001C34.2076 12.6641 35.1612 12.6641 36.019 13.0193C36.8765 13.3745 37.5508 14.0489 38.8997 15.3977L45.0989 21.5971C46.4478 22.9459 47.1221 23.6203 47.4775 24.4779C47.8326 25.3355 47.8326 26.2892 47.8326 28.1967V38.3307C47.8326 44.9303 47.8326 48.2301 45.7823 50.2804C43.7323 52.3307 40.4322 52.3307 33.8326 52.3307Z" stroke="#000" stroke-width="2.5" stroke-linecap="round" stroke-linejoin="round"/>
<path d="M35 13.8359V16.1693C35 20.5691 35 22.7689 36.3669 24.1358C37.7337 25.5026 39.9336 25.5026 44.3333 25.5026H46.6667" stroke="#000" stroke-width="2.5" stroke-linecap="round" stroke-linejoin="round"/>
<path d="M15.165 19.6641C11.2991 19.6641 8.16504 22.7981 8.16504 26.6641V45.3307C8.16504 51.9306 8.16504 55.2304 10.2153 57.2804C12.2655 59.3307 15.5654 59.3307 22.165 59.3307H33.8325C37.6984 59.3307 40.8325 56.1966 40.8325 52.3307" stroke="#000" stroke-width="2.5" stroke-linecap="round" stroke-linejoin="round"/>
<path d="M23.333 33.6641H32.6663M23.333 42.9974H39.6663" stroke="#000" stroke-width="2.5" stroke-linecap="round" stroke-linejoin="round"/>
<path d="M81 21H105" stroke="#000" stroke-width="2.5" stroke-linecap="round" stroke-linejoin="round"/>
<path d="M81 33H93" stroke="#000" stroke-width="2.5" stroke-linecap="round" stroke-linejoin="round"/>
<path d="M96 64.5V63C96 54.5148 96 50.2722 98.6361 47.6361C101.272 45 105.515 45 114 45H115.5M117 40.0293V30C117 18.6863 117 13.0295 113.485 9.51471C109.971 6 104.314 6 93 6C81.6863 6 76.0294 6 72.5147 9.51471C69 13.0294 69 18.6863 69 30V43.6326C69 53.3676 69 58.2351 71.6582 61.5321C72.1952 62.1981 72.8019 62.8047 73.468 63.3417C76.7649 66 81.6325 66 91.3674 66C93.4842 66 94.5423 66 95.5116 65.658C95.7132 65.5869 95.9106 65.505 96.1035 65.4129C97.0308 64.9692 97.779 64.221 99.2757 62.7243L113.485 48.5148C115.219 46.7805 116.086 45.9135 116.543 44.8107C117 43.7082 117 42.4818 117 40.0293Z" stroke="#000" stroke-width="2.5" stroke-linecap="round" stroke-linejoin="round"/>
</svg>
