<svg width="88" height="64" viewBox="0 0 88 64" fill="none" xmlns="http://www.w3.org/2000/svg">
<path d="M46.7559 36.4101L52 40.9951V17.3377C52 15.1276 53.7917 13.3359 56.0016 13.3359C58.2104 13.3359 60.0016 15.1255 60.0035 17.3342L60.012 30.0373L67.0424 31.1767C71.5803 31.8671 73.8493 32.2122 75.4475 33.1831C78.0875 34.7869 80 37.3359 80 40.7111C80 43.1602 79.4032 44.8031 77.952 49.2175C77.0312 52.0183 76.5709 53.4189 75.8203 54.5277C74.5843 56.3527 72.7608 57.6855 70.6624 58.2973C69.3877 58.669 67.932 58.669 65.0203 58.669H62.5523C58.6811 58.669 56.7456 58.669 55.0227 57.9487C54.7136 57.8197 54.4117 57.6738 54.1179 57.5119C52.48 56.6101 51.2597 55.0869 48.8186 52.0405L40.9163 42.1781C39.7019 40.6623 39.6938 38.4935 40.8968 36.9685C42.3427 35.1359 44.9985 34.8826 46.7559 36.4101Z" stroke="#000" stroke-width="2.5" stroke-linecap="round" stroke-linejoin="round"/>
<path d="M42.6667 21.3359H40.4706C36.4775 21.3359 34.481 21.3359 33.2405 20.1644C32 18.9928 32 17.1072 32 13.3359C32 9.56471 32 7.67908 33.2405 6.50751C34.481 5.33594 36.4775 5.33594 40.4706 5.33594H71.5293C75.5224 5.33594 77.5189 5.33594 78.7595 6.50751C80 7.67908 80 9.56471 80 13.3359C80 17.1072 80 18.9928 78.7595 20.1644C77.5189 21.3359 75.5224 21.3359 71.5293 21.3359H69.3333" stroke="#000" stroke-width="2.5" stroke-linecap="round" stroke-linejoin="round"/>
<path d="M21.0477 35.0529C18.8697 32.7074 2.48648 38.4532 2.50001 40.551C2.51535 42.9299 8.89809 43.6617 10.6672 44.1581C11.7311 44.4565 12.016 44.7625 12.2613 45.8781C13.3723 50.9305 13.9301 53.4435 15.2014 53.4996C17.2278 53.5892 23.1733 37.342 21.0477 35.0529Z" stroke="#000" stroke-width="1.5"/>
<path d="M11.5 44.5L15 41" stroke="#000" stroke-width="1.5" stroke-linecap="round" stroke-linejoin="round"/>
</svg>
