<svg width="34" height="34" viewBox="0 0 34 34" fill="none" xmlns="http://www.w3.org/2000/svg">
<path d="M32.5 32.5026L10.3333 10.3359M10.3333 10.3359H7.16667C5.48696 10.3359 3.87606 9.66868 2.68833 8.48095C1.5006 7.29322 0.833335 5.68231 0.833335 4.0026V0.835938H4C5.67971 0.835938 7.29061 1.5032 8.47834 2.69093C9.66607 3.87866 10.3333 5.48957 10.3333 7.16927V10.3359ZM30.1725 17.5084L27.75 15.0859L25.3275 17.5084C24.2929 18.5471 23.7121 19.9533 23.7121 21.4193C23.7121 22.8852 24.2929 24.2915 25.3275 25.3301L27.75 27.7526L30.1725 25.3301C31.2071 24.2915 31.7879 22.8852 31.7879 21.4193C31.7879 19.9533 31.2071 18.5471 30.1725 17.5084ZM23.8392 11.1751L21.4167 8.7526L18.9942 11.1751C17.9596 12.2137 17.3788 13.62 17.3788 15.0859C17.3788 16.5519 17.9596 17.9581 18.9942 18.9968L21.4167 21.4193L23.8392 18.9968C24.8737 17.9581 25.4546 16.5519 25.4546 15.0859C25.4546 13.62 24.8737 12.2137 23.8392 11.1751ZM17.5058 4.84177L15.0833 2.41927L12.6608 4.84177C11.6263 5.8804 11.0454 7.28664 11.0454 8.7526C11.0454 10.2186 11.6263 11.6248 12.6608 12.6634L15.0833 15.0859L17.5058 12.6634C18.5404 11.6248 19.1212 10.2186 19.1212 8.7526C19.1212 7.28664 18.5404 5.8804 17.5058 4.84177Z" stroke="#0A0A0A" stroke-width="1.66667" stroke-linecap="round" stroke-linejoin="round"/>
<path d="M17.5058 25.329L15.0833 27.7515L17.5058 30.174C18.5445 31.2085 19.9507 31.7894 21.4167 31.7894C22.8826 31.7894 24.2889 31.2085 25.3275 30.174L27.75 27.7515L25.3275 25.329C24.2889 24.2944 22.8826 23.7135 21.4167 23.7135C19.9507 23.7135 18.5445 24.2944 17.5058 25.329ZM11.1725 18.9956L8.75 21.4181L11.1725 23.8406C12.2111 24.8752 13.6174 25.456 15.0833 25.456C16.5493 25.456 17.9555 24.8752 18.9942 23.8406L21.4167 21.4181L18.9942 18.9956C17.9555 17.9611 16.5493 17.3802 15.0833 17.3802C13.6174 17.3802 12.2111 17.9611 11.1725 18.9956ZM4.83917 12.6623L2.41667 15.0848L4.83917 17.5073C5.8778 18.5418 7.28404 19.1227 8.75 19.1227C10.216 19.1227 11.6222 18.5418 12.6608 17.5073L15.0833 15.0848L12.6608 12.6623C11.6222 11.6277 10.216 11.0469 8.75 11.0469C7.28404 11.0469 5.8778 11.6277 4.83917 12.6623Z" stroke="#0A0A0A" stroke-width="1.66667" stroke-linecap="round" stroke-linejoin="round"/>
</svg>
